# xmcd
#
# Track frame offsets:
#	150
#	20628
#	36048
#	53878
#	70098
#	98095
#	119378
#	140575
#	156563
#	173288
#
# Disc length: 2604 seconds
#
# Revision: 5
# Processed by: cddbd v1.5.2PL0 Copyright (c) Steve Scherf et al.
# Submitted via: EZCDAudioConverter 2.1.3.1
#
DISCID=820a2a0a
DTITLE=김광석 - 네번째
DYEAR=1994
DGENRE=가요
TTITLE0=일어나
TTITLE1=바람이 불어오는 곳
TTITLE2=너무 깊이 생각하지마
TTITLE3=회귀
TTITLE4=너무 아픈 사랑은 사랑이 아니었음을
TTITLE5=서른 즈음에
TTITLE6=혼자 남은밤
TTITLE7=끊어진 길
TTITLE8=맑고 향기롭게
TTITLE9=자유롭게
EXTD=
EXTT0=
EXTT1=
EXTT2=
EXTT3=
EXTT4=
EXTT5=
EXTT6=
EXTT7=
EXTT8=
EXTT9=
PLAYORDER=
